<?xml version="1.0" encoding="UTF-8"?>
<svg id="OBJECTS" xmlns="http://www.w3.org/2000/svg" viewBox="0 0 197.57 70.2">
  <path d="m58.55,28.62c0-13.01-8.61-24-20.44-27.6v23.28h10.21l-18.61,18.61L11.1,24.3h10.21V1.02C9.47,4.62.87,15.61.87,28.62s8.11,23.34,19.39,27.25v13.31l11.82-11.82c14.82-1.21,26.47-13.61,26.47-28.74Z" style="fill: #3db2ff;"/>
  <g>
    <path d="m79.68,22.14c0,2.51-.72,4.44-2.15,5.77-1.43,1.34-3.5,2-6.2,2h-4.32v-15.26h4.79c2.49,0,4.43.66,5.8,1.97s2.07,3.15,2.07,5.51Zm-3.36.08c0-3.28-1.45-4.92-4.34-4.92h-1.72v9.94h1.39c3.12,0,4.68-1.67,4.68-5.02Z" style="fill: #0e4360;"/>
    <path d="m96.7,22.27c0,2.53-.63,4.47-1.88,5.82s-3.05,2.04-5.39,2.04-4.13-.68-5.39-2.04-1.88-3.31-1.88-5.85.63-4.48,1.88-5.82c1.26-1.34,3.06-2.01,5.4-2.01s4.14.67,5.38,2.02,1.86,3.29,1.86,5.82Zm-11.14,0c0,1.71.32,2.99.97,3.85.65.86,1.61,1.29,2.9,1.29,2.58,0,3.87-1.72,3.87-5.15s-1.28-5.16-3.85-5.16c-1.29,0-2.26.43-2.91,1.3s-.98,2.15-.98,3.86Z" style="fill: #0e4360;"/>
    <path d="m114.72,29.92h-3.69l-2.07-8.02c-.08-.29-.21-.88-.39-1.77-.18-.89-.29-1.49-.32-1.8-.04.38-.15.98-.31,1.81s-.3,1.42-.39,1.78l-2.06,8h-3.67l-3.89-15.26h3.18l1.95,8.33c.34,1.54.59,2.87.74,4,.04-.4.14-1.01.29-1.84.15-.83.29-1.48.42-1.94l2.22-8.55h3.06l2.22,8.55c.1.38.22.97.37,1.75.15.79.26,1.46.33,2.02.07-.54.18-1.22.33-2.03.15-.81.29-1.47.42-1.97l1.94-8.33h3.18l-3.88,15.26Z" style="fill: #0e4360;"/>
    <path d="m134.07,29.92h-4.11l-6.64-11.54h-.09c.13,2.04.2,3.49.2,4.36v7.18h-2.89v-15.26h4.08l6.63,11.43h.07c-.1-1.98-.16-3.39-.16-4.21v-7.22h2.91v15.26Z" style="fill: #0e4360;"/>
    <path d="m137.91,29.92v-15.26h3.24v12.59h6.19v2.67h-9.43Z" style="fill: #0e4360;"/>
    <path d="m163.84,22.27c0,2.53-.63,4.47-1.88,5.82s-3.05,2.04-5.39,2.04-4.13-.68-5.39-2.04-1.88-3.31-1.88-5.85.63-4.48,1.88-5.82c1.26-1.34,3.06-2.01,5.4-2.01s4.14.67,5.38,2.02,1.86,3.29,1.86,5.82Zm-11.14,0c0,1.71.32,2.99.97,3.85.65.86,1.61,1.29,2.9,1.29,2.58,0,3.87-1.72,3.87-5.15s-1.28-5.16-3.85-5.16c-1.29,0-2.26.43-2.91,1.3s-.98,2.15-.98,3.86Z" style="fill: #0e4360;"/>
    <path d="m176.34,29.92l-1.11-3.63h-5.56l-1.11,3.63h-3.49l5.39-15.32h3.96l5.41,15.32h-3.49Zm-1.88-6.35c-1.02-3.29-1.6-5.15-1.73-5.58-.13-.43-.22-.77-.28-1.02-.23.89-.89,3.09-1.97,6.61h3.98Z" style="fill: #0e4360;"/>
    <path d="m194.41,22.14c0,2.51-.72,4.44-2.15,5.77-1.43,1.34-3.5,2-6.2,2h-4.32v-15.26h4.79c2.49,0,4.43.66,5.8,1.97s2.07,3.15,2.07,5.51Zm-3.36.08c0-3.28-1.45-4.92-4.34-4.92h-1.72v9.94h1.39c3.12,0,4.68-1.67,4.68-5.02Z" style="fill: #0e4360;"/>
    <path d="m67.02,55.57v-15.26h3.24v15.26h-3.24Z" style="fill: #0e4360;"/>
    <path d="m80.56,55.57l-3.67-11.97h-.09c.13,2.44.2,4.06.2,4.87v7.1h-2.89v-15.26h4.4l3.61,11.67h.06l3.83-11.67h4.4v15.26h-3.02v-7.22c0-.34,0-.73.02-1.18s.06-1.63.14-3.55h-.09l-3.94,11.95h-2.96Z" style="fill: #0e4360;"/>
    <path d="m103.6,55.57l-1.11-3.63h-5.56l-1.11,3.63h-3.49l5.39-15.32h3.96l5.41,15.32h-3.49Zm-1.88-6.35c-1.02-3.29-1.6-5.15-1.73-5.58-.13-.43-.22-.77-.28-1.02-.23.89-.89,3.09-1.97,6.61h3.98Z" style="fill: #0e4360;"/>
    <path d="m114.8,47h6.05v7.91c-.98.32-1.9.54-2.77.67-.87.13-1.75.19-2.66.19-2.3,0-4.06-.68-5.28-2.03s-1.82-3.3-1.82-5.83.7-4.38,2.11-5.76c1.41-1.38,3.36-2.07,5.86-2.07,1.57,0,3.08.31,4.53.94l-1.08,2.59c-1.11-.56-2.27-.83-3.48-.83-1.4,0-2.52.47-3.36,1.41s-1.26,2.2-1.26,3.79.34,2.92,1.02,3.79c.68.87,1.67,1.31,2.96,1.31.68,0,1.36-.07,2.06-.21v-3.18h-2.89v-2.69Z" style="fill: #0e4360;"/>
    <path d="m133.27,55.57h-8.79v-15.26h8.79v2.65h-5.55v3.35h5.17v2.65h-5.17v3.94h5.55v2.67Z" style="fill: #0e4360;"/>
  </g>
</svg>